<?xml version="1.0" encoding="UTF-8"?>
<svg xmlns="http://www.w3.org/2000/svg" xmlns:xlink="http://www.w3.org/1999/xlink" width="15px" height="15px" viewBox="0 0 15 15" version="1.1">
<g id="surface1">
<path style=" stroke:none;fill-rule:nonzero;fill:rgb(40.784314%,39.215687%,39.215687%);fill-opacity:1;" d="M 5.285156 7.953125 C 5.339844 7.953125 5.394531 7.953125 5.445312 7.953125 C 5.589844 7.953125 5.734375 7.953125 5.882812 7.953125 C 6.035156 7.953125 6.1875 7.953125 6.339844 7.953125 C 6.59375 7.953125 6.851562 7.953125 7.105469 7.953125 C 7.402344 7.953125 7.695312 7.953125 7.992188 7.953125 C 8.246094 7.953125 8.5 7.953125 8.753906 7.953125 C 8.90625 7.953125 9.058594 7.953125 9.207031 7.953125 C 9.351562 7.953125 9.492188 7.953125 9.636719 7.953125 C 9.6875 7.953125 9.738281 7.953125 9.789062 7.953125 C 10.832031 7.949219 11.761719 8.328125 12.507812 9.050781 C 13.253906 9.792969 13.601562 10.742188 13.605469 11.78125 C 13.605469 11.84375 13.605469 11.90625 13.605469 11.96875 C 13.605469 12.035156 13.605469 12.097656 13.605469 12.164062 C 13.605469 12.300781 13.605469 12.4375 13.605469 12.570312 C 13.605469 12.746094 13.605469 12.917969 13.609375 13.09375 C 13.609375 13.226562 13.609375 13.359375 13.609375 13.496094 C 13.609375 13.558594 13.609375 13.621094 13.609375 13.6875 C 13.609375 13.777344 13.609375 13.867188 13.609375 13.953125 C 13.609375 13.980469 13.609375 14.007812 13.609375 14.035156 C 13.605469 14.195312 13.585938 14.289062 13.476562 14.414062 C 13.347656 14.515625 13.261719 14.546875 13.097656 14.546875 C 13.078125 14.546875 13.058594 14.546875 13.039062 14.546875 C 12.972656 14.546875 12.90625 14.546875 12.839844 14.546875 C 12.792969 14.546875 12.746094 14.546875 12.695312 14.546875 C 12.566406 14.546875 12.433594 14.546875 12.300781 14.546875 C 12.160156 14.546875 12.019531 14.546875 11.875 14.546875 C 11.597656 14.546875 11.320312 14.546875 11.042969 14.546875 C 10.816406 14.546875 10.589844 14.546875 10.367188 14.546875 C 10.316406 14.546875 10.316406 14.546875 10.269531 14.546875 C 10.203125 14.546875 10.136719 14.546875 10.070312 14.546875 C 9.460938 14.546875 8.847656 14.546875 8.234375 14.546875 C 7.710938 14.546875 7.183594 14.546875 6.660156 14.546875 C 6.050781 14.546875 5.441406 14.546875 4.828125 14.546875 C 4.765625 14.546875 4.699219 14.546875 4.632812 14.546875 C 4.601562 14.546875 4.570312 14.546875 4.539062 14.546875 C 4.3125 14.546875 4.085938 14.546875 3.859375 14.546875 C 3.585938 14.546875 3.3125 14.546875 3.035156 14.546875 C 2.894531 14.546875 2.753906 14.546875 2.617188 14.546875 C 2.488281 14.546875 2.359375 14.546875 2.230469 14.546875 C 2.183594 14.546875 2.136719 14.546875 2.089844 14.546875 C 2.027344 14.546875 1.964844 14.546875 1.902344 14.546875 C 1.867188 14.546875 1.832031 14.546875 1.796875 14.546875 C 1.644531 14.523438 1.554688 14.449219 1.453125 14.335938 C 1.390625 14.203125 1.390625 14.097656 1.390625 13.953125 C 1.390625 13.910156 1.390625 13.910156 1.390625 13.867188 C 1.390625 13.773438 1.390625 13.679688 1.390625 13.585938 C 1.390625 13.523438 1.390625 13.457031 1.390625 13.390625 C 1.390625 13.253906 1.390625 13.117188 1.390625 12.980469 C 1.390625 12.804688 1.390625 12.628906 1.390625 12.457031 C 1.390625 12.320312 1.390625 12.183594 1.390625 12.050781 C 1.390625 11.984375 1.390625 11.921875 1.390625 11.855469 C 1.386719 10.761719 1.738281 9.851562 2.492188 9.050781 C 2.503906 9.035156 2.519531 9.019531 2.535156 9 C 3.234375 8.25 4.292969 7.949219 5.285156 7.953125 Z M 5.285156 7.953125 "/>
<path style=" stroke:none;fill-rule:nonzero;fill:rgb(40.784314%,39.215687%,39.215687%);fill-opacity:1;" d="M 9.511719 1.121094 C 10.21875 1.675781 10.648438 2.425781 10.78125 3.3125 C 10.839844 4.34375 10.621094 5.222656 9.925781 6.007812 C 9.398438 6.582031 8.625 6.988281 7.839844 7.039062 C 7.730469 7.042969 7.621094 7.042969 7.511719 7.042969 C 7.484375 7.042969 7.484375 7.042969 7.453125 7.042969 C 7.132812 7.039062 6.839844 7.011719 6.53125 6.914062 C 6.511719 6.90625 6.492188 6.902344 6.472656 6.894531 C 6.054688 6.761719 5.691406 6.558594 5.359375 6.269531 C 5.335938 6.25 5.3125 6.230469 5.289062 6.210938 C 4.800781 5.796875 4.484375 5.238281 4.304688 4.628906 C 4.296875 4.597656 4.285156 4.5625 4.277344 4.53125 C 4.070312 3.714844 4.21875 2.808594 4.632812 2.085938 C 5.097656 1.316406 5.789062 0.8125 6.640625 0.550781 C 7.640625 0.304688 8.691406 0.492188 9.511719 1.121094 Z M 9.511719 1.121094 "/>
</g>
</svg>
